<?xml version='1.0' encoding='UTF-8'?>
<!DOCTYPE svg PUBLIC "-//W3C//DTD SVG 1.0//EN" "http://www.w3.org/TR/2001/REC-SVG-20010904/DTD/svg10.dtd">
<svg viewBox="0 0 832 640" xmlns="http://www.w3.org/2000/svg" xmlns:inkspace="http://www.inkscape.org/namespaces/inkscape" xmlns:xlink="http://www.w3.org/1999/xlink">
  <defs id="defs_block">
    <filter height="1.504" id="filter_blur" inkspace:collect="always" width="1.1575" x="-0.07875" y="-0.252">
      <feGaussianBlur id="feGaussianBlur3780" inkspace:collect="always" stdDeviation="4.2" />
    </filter>
  </defs>
  <title>blockdiag</title>
  <desc>blockdiag {
  orientation = portrait;
  node_width = 192;
  node_height = 60;
  default_group_color = none;

  group {
    "Ubuntu 18.04" [style = none];
    "nvidia/cuda" [style = none];

    group {
      orientation = portrait;
      
      group {
        orientation=portrait;
        
        "google/base-deps" [style = none];
        "google/swift-jupyter" [style = none];
      }
      
      group {
        "Google Colab" [style = none];
      }
    }

    group {
      "ctmnt/swift-jupyter-base";
      "ctmnt/swift-jupyter";

      group {
        "ctmnt/swift-jupyter-scipy";
        "ctmnt/swift-jupyter-colab";
      }
    }

    group {
      "jupyter/base-notebook" [style = none];
      "jupyter/minimal-notebook" [style = none];
      "jupyter/scipy-notebook" [style = none];
      "jupyter/tensorflow-notebook" [style = none];
    }
  }

  "Ubuntu 18.04" -&gt; "nvidia/cuda" [hstyle = generalization];
  "Ubuntu 18.04" -&gt; "jupyter/base-notebook" [hstyle = generalization];

  "nvidia/cuda" -&gt; "google/base-deps" [hstyle = generalization];
  "nvidia/cuda" -&gt; "ctmnt/swift-jupyter-base";

  "google/base-deps" -&gt; "google/swift-jupyter" [hstyle=generalization];
  "google/base-deps" -&gt; "ctmnt/swift-jupyter-base" [folded, dir = both, style = dotted];

  "google/swift-jupyter" -&gt; "ctmnt/swift-jupyter" [folded, dir = both, style = dotted];

  "ctmnt/swift-jupyter-base" -&gt; "ctmnt/swift-jupyter" [style = dotted];
  "ctmnt/swift-jupyter" -&gt; "ctmnt/swift-jupyter-scipy" [style = dotted];

  "ctmnt/swift-jupyter-scipy" -&gt; "ctmnt/swift-jupyter-colab" [style = dotted];
  "ctmnt/swift-jupyter-scipy" -&gt; "jupyter/tensorflow-notebook" [folded, dir = both, style = dotted];

  "Google Colab" -&gt; "ctmnt/swift-jupyter-colab" [folded, dir=both, style = dotted];

  "jupyter/base-notebook" -&gt; "jupyter/minimal-notebook" [hstyle=generalization];
  "jupyter/minimal-notebook" -&gt; "jupyter/scipy-notebook" [hstyle=generalization];
  "jupyter/scipy-notebook" -&gt; "jupyter/tensorflow-notebook" [hstyle=generalization];
}
</desc>
  <rect fill="none" height="580" style="filter:url(#filter_blur)" width="720" x="56" y="30" />
  <rect fill="none" height="380" style="filter:url(#filter_blur)" width="208" x="568" y="130" />
  <rect fill="none" height="280" style="filter:url(#filter_blur)" width="208" x="56" y="230" />
  <rect fill="none" height="180" style="filter:url(#filter_blur)" width="208" x="56" y="230" />
  <rect fill="none" height="80" style="filter:url(#filter_blur)" width="208" x="56" y="430" />
  <rect fill="none" height="380" style="filter:url(#filter_blur)" width="208" x="312" y="230" />
  <rect fill="none" height="180" style="filter:url(#filter_blur)" width="208" x="312" y="430" />
  <rect fill="rgb(0,0,0)" height="60" stroke="rgb(0,0,0)" style="filter:url(#filter_blur);opacity:0.7;fill-opacity:1" width="192" x="67" y="46" />
  <rect fill="rgb(0,0,0)" height="60" stroke="rgb(0,0,0)" style="filter:url(#filter_blur);opacity:0.7;fill-opacity:1" width="192" x="67" y="146" />
  <rect fill="rgb(0,0,0)" height="60" stroke="rgb(0,0,0)" style="filter:url(#filter_blur);opacity:0.7;fill-opacity:1" width="192" x="579" y="146" />
  <rect fill="rgb(0,0,0)" height="60" stroke="rgb(0,0,0)" style="filter:url(#filter_blur);opacity:0.7;fill-opacity:1" width="192" x="579" y="246" />
  <rect fill="rgb(0,0,0)" height="60" stroke="rgb(0,0,0)" style="filter:url(#filter_blur);opacity:0.7;fill-opacity:1" width="192" x="579" y="346" />
  <rect fill="rgb(0,0,0)" height="60" stroke="rgb(0,0,0)" style="filter:url(#filter_blur);opacity:0.7;fill-opacity:1" width="192" x="579" y="446" />
  <rect fill="rgb(0,0,0)" height="60" stroke="rgb(0,0,0)" style="filter:url(#filter_blur);opacity:0.7;fill-opacity:1" width="192" x="67" y="246" />
  <rect fill="rgb(0,0,0)" height="60" stroke="rgb(0,0,0)" style="filter:url(#filter_blur);opacity:0.7;fill-opacity:1" width="192" x="67" y="346" />
  <rect fill="rgb(0,0,0)" height="60" stroke="rgb(0,0,0)" style="filter:url(#filter_blur);opacity:0.7;fill-opacity:1" width="192" x="67" y="446" />
  <rect fill="rgb(0,0,0)" height="60" stroke="rgb(0,0,0)" style="filter:url(#filter_blur);opacity:0.7;fill-opacity:1" width="192" x="323" y="246" />
  <rect fill="rgb(0,0,0)" height="60" stroke="rgb(0,0,0)" style="filter:url(#filter_blur);opacity:0.7;fill-opacity:1" width="192" x="323" y="346" />
  <rect fill="rgb(0,0,0)" height="60" stroke="rgb(0,0,0)" style="filter:url(#filter_blur);opacity:0.7;fill-opacity:1" width="192" x="323" y="446" />
  <rect fill="rgb(0,0,0)" height="60" stroke="rgb(0,0,0)" style="filter:url(#filter_blur);opacity:0.7;fill-opacity:1" width="192" x="323" y="546" />
  <rect fill="rgb(255,255,255)" height="60" stroke="rgb(0,0,0)" stroke-dasharray="0 65535" width="192" x="64" y="40" />
  <text fill="rgb(0,0,0)" font-family="sans-serif" font-size="11" font-style="normal" font-weight="normal" text-anchor="middle" textLength="72" x="160.0" y="75">Ubuntu 18.04</text>
  <rect fill="rgb(255,255,255)" height="60" stroke="rgb(0,0,0)" stroke-dasharray="0 65535" width="192" x="64" y="140" />
  <text fill="rgb(0,0,0)" font-family="sans-serif" font-size="11" font-style="normal" font-weight="normal" text-anchor="middle" textLength="58" x="160.0" y="176">nvidia/cuda</text>
  <rect fill="rgb(255,255,255)" height="60" stroke="rgb(0,0,0)" stroke-dasharray="0 65535" width="192" x="576" y="140" />
  <text fill="rgb(0,0,0)" font-family="sans-serif" font-size="11" font-style="normal" font-weight="normal" text-anchor="middle" textLength="116" x="672.0" y="176">jupyter/base-notebook</text>
  <rect fill="rgb(255,255,255)" height="60" stroke="rgb(0,0,0)" stroke-dasharray="0 65535" width="192" x="576" y="240" />
  <text fill="rgb(0,0,0)" font-family="sans-serif" font-size="11" font-style="normal" font-weight="normal" text-anchor="middle" textLength="131" x="672.5" y="276">jupyter/minimal-notebook</text>
  <rect fill="rgb(255,255,255)" height="60" stroke="rgb(0,0,0)" stroke-dasharray="0 65535" width="192" x="576" y="340" />
  <text fill="rgb(0,0,0)" font-family="sans-serif" font-size="11" font-style="normal" font-weight="normal" text-anchor="middle" textLength="118" x="672.0" y="376">jupyter/scipy-notebook</text>
  <rect fill="rgb(255,255,255)" height="60" stroke="rgb(0,0,0)" stroke-dasharray="0 65535" width="192" x="576" y="440" />
  <text fill="rgb(0,0,0)" font-family="sans-serif" font-size="11" font-style="normal" font-weight="normal" text-anchor="middle" textLength="145" x="672.5" y="476">jupyter/tensorflow-notebook</text>
  <rect fill="rgb(255,255,255)" height="60" stroke="rgb(0,0,0)" stroke-dasharray="0 65535" width="192" x="64" y="240" />
  <text fill="rgb(0,0,0)" font-family="sans-serif" font-size="11" font-style="normal" font-weight="normal" text-anchor="middle" textLength="91" x="160.5" y="276">google/base-deps</text>
  <rect fill="rgb(255,255,255)" height="60" stroke="rgb(0,0,0)" stroke-dasharray="0 65535" width="192" x="64" y="340" />
  <text fill="rgb(0,0,0)" font-family="sans-serif" font-size="11" font-style="normal" font-weight="normal" text-anchor="middle" textLength="103" x="160.5" y="377">google/swift-jupyter</text>
  <rect fill="rgb(255,255,255)" height="60" stroke="rgb(0,0,0)" stroke-dasharray="0 65535" width="192" x="64" y="440" />
  <text fill="rgb(0,0,0)" font-family="sans-serif" font-size="11" font-style="normal" font-weight="normal" text-anchor="middle" textLength="66" x="160.0" y="477">Google Colab</text>
  <rect fill="rgb(255,255,255)" height="60" stroke="rgb(0,0,0)" width="192" x="320" y="240" />
  <text fill="rgb(0,0,0)" font-family="sans-serif" font-size="11" font-style="normal" font-weight="normal" text-anchor="middle" textLength="130" x="416.0" y="276">ctmnt/swift-jupyter-base</text>
  <rect fill="rgb(255,255,255)" height="60" stroke="rgb(0,0,0)" width="192" x="320" y="340" />
  <text fill="rgb(0,0,0)" font-family="sans-serif" font-size="11" font-style="normal" font-weight="normal" text-anchor="middle" textLength="101" x="416.5" y="376">ctmnt/swift-jupyter</text>
  <rect fill="rgb(255,255,255)" height="60" stroke="rgb(0,0,0)" width="192" x="320" y="440" />
  <text fill="rgb(0,0,0)" font-family="sans-serif" font-size="11" font-style="normal" font-weight="normal" text-anchor="middle" textLength="132" x="416.0" y="476">ctmnt/swift-jupyter-scipy</text>
  <rect fill="rgb(255,255,255)" height="60" stroke="rgb(0,0,0)" width="192" x="320" y="540" />
  <text fill="rgb(0,0,0)" font-family="sans-serif" font-size="11" font-style="normal" font-weight="normal" text-anchor="middle" textLength="133" x="416.5" y="576">ctmnt/swift-jupyter-colab</text>
  <path d="M 160 100 L 160 132" fill="none" stroke="rgb(0,0,0)" />
  <polygon fill="white" points="160,139 156,132 164,132 160,139" stroke="rgb(0,0,0)" />
  <path d="M 160 100 L 160 120" fill="none" stroke="rgb(0,0,0)" />
  <path d="M 160 120 L 672 120" fill="none" stroke="rgb(0,0,0)" />
  <path d="M 672 120 L 672 132" fill="none" stroke="rgb(0,0,0)" />
  <polygon fill="white" points="672,139 668,132 676,132 672,139" stroke="rgb(0,0,0)" />
  <path d="M 160 200 L 160 232" fill="none" stroke="rgb(0,0,0)" />
  <polygon fill="white" points="160,239 156,232 164,232 160,239" stroke="rgb(0,0,0)" />
  <path d="M 160 200 L 160 220" fill="none" stroke="rgb(0,0,0)" />
  <path d="M 160 220 L 416 220" fill="none" stroke="rgb(0,0,0)" />
  <path d="M 416 220 L 416 232" fill="none" stroke="rgb(0,0,0)" />
  <polygon fill="rgb(0,0,0)" points="416,239 412,232 420,232 416,239" stroke="rgb(0,0,0)" />
  <path d="M 672 200 L 672 232" fill="none" stroke="rgb(0,0,0)" />
  <polygon fill="white" points="672,239 668,232 676,232 672,239" stroke="rgb(0,0,0)" />
  <path d="M 672 300 L 672 332" fill="none" stroke="rgb(0,0,0)" />
  <polygon fill="white" points="672,339 668,332 676,332 672,339" stroke="rgb(0,0,0)" />
  <path d="M 672 400 L 672 432" fill="none" stroke="rgb(0,0,0)" />
  <polygon fill="white" points="672,439 668,432 676,432 672,439" stroke="rgb(0,0,0)" />
  <path d="M 160 300 L 160 332" fill="none" stroke="rgb(0,0,0)" />
  <polygon fill="white" points="160,339 156,332 164,332 160,339" stroke="rgb(0,0,0)" />
  <path d="M 264 270 L 312 270" fill="none" stroke="rgb(0,0,0)" stroke-dasharray="2" />
  <polygon fill="rgb(0,0,0)" points="257,270 264,266 264,274 257,270" stroke="rgb(0,0,0)" />
  <polygon fill="rgb(0,0,0)" points="319,270 312,266 312,274 319,270" stroke="rgb(0,0,0)" />
  <path d="M 264 370 L 312 370" fill="none" stroke="rgb(0,0,0)" stroke-dasharray="2" />
  <polygon fill="rgb(0,0,0)" points="257,370 264,366 264,374 257,370" stroke="rgb(0,0,0)" />
  <polygon fill="rgb(0,0,0)" points="319,370 312,366 312,374 319,370" stroke="rgb(0,0,0)" />
  <path d="M 264 470 L 288 470" fill="none" stroke="rgb(0,0,0)" stroke-dasharray="2" />
  <path d="M 288 470 L 288 570" fill="none" stroke="rgb(0,0,0)" stroke-dasharray="2" />
  <path d="M 288 570 L 312 570" fill="none" stroke="rgb(0,0,0)" stroke-dasharray="2" />
  <polygon fill="rgb(0,0,0)" points="257,470 264,466 264,474 257,470" stroke="rgb(0,0,0)" />
  <polygon fill="rgb(0,0,0)" points="319,570 312,566 312,574 319,570" stroke="rgb(0,0,0)" />
  <path d="M 160 300 L 160 332" fill="none" stroke="rgb(0,0,0)" />
  <polygon fill="white" points="160,339 156,332 164,332 160,339" stroke="rgb(0,0,0)" />
  <path d="M 264 270 L 312 270" fill="none" stroke="rgb(0,0,0)" stroke-dasharray="2" />
  <polygon fill="rgb(0,0,0)" points="257,270 264,266 264,274 257,270" stroke="rgb(0,0,0)" />
  <polygon fill="rgb(0,0,0)" points="319,270 312,266 312,274 319,270" stroke="rgb(0,0,0)" />
  <path d="M 264 370 L 312 370" fill="none" stroke="rgb(0,0,0)" stroke-dasharray="2" />
  <polygon fill="rgb(0,0,0)" points="257,370 264,366 264,374 257,370" stroke="rgb(0,0,0)" />
  <polygon fill="rgb(0,0,0)" points="319,370 312,366 312,374 319,370" stroke="rgb(0,0,0)" />
  <path d="M 264 470 L 288 470" fill="none" stroke="rgb(0,0,0)" stroke-dasharray="2" />
  <path d="M 288 470 L 288 570" fill="none" stroke="rgb(0,0,0)" stroke-dasharray="2" />
  <path d="M 288 570 L 312 570" fill="none" stroke="rgb(0,0,0)" stroke-dasharray="2" />
  <polygon fill="rgb(0,0,0)" points="257,470 264,466 264,474 257,470" stroke="rgb(0,0,0)" />
  <polygon fill="rgb(0,0,0)" points="319,570 312,566 312,574 319,570" stroke="rgb(0,0,0)" />
  <path d="M 416 300 L 416 332" fill="none" stroke="rgb(0,0,0)" stroke-dasharray="2" />
  <polygon fill="rgb(0,0,0)" points="416,339 412,332 420,332 416,339" stroke="rgb(0,0,0)" />
  <path d="M 416 400 L 416 432" fill="none" stroke="rgb(0,0,0)" stroke-dasharray="2" />
  <polygon fill="rgb(0,0,0)" points="416,439 412,432 420,432 416,439" stroke="rgb(0,0,0)" />
  <path d="M 416 500 L 416 532" fill="none" stroke="rgb(0,0,0)" stroke-dasharray="2" />
  <polygon fill="rgb(0,0,0)" points="416,539 412,532 420,532 416,539" stroke="rgb(0,0,0)" />
  <path d="M 520 470 L 568 470" fill="none" stroke="rgb(0,0,0)" stroke-dasharray="2" />
  <polygon fill="rgb(0,0,0)" points="513,470 520,466 520,474 513,470" stroke="rgb(0,0,0)" />
  <polygon fill="rgb(0,0,0)" points="575,470 568,466 568,474 575,470" stroke="rgb(0,0,0)" />
  <path d="M 416 500 L 416 532" fill="none" stroke="rgb(0,0,0)" stroke-dasharray="2" />
  <polygon fill="rgb(0,0,0)" points="416,539 412,532 420,532 416,539" stroke="rgb(0,0,0)" />
  <path d="M 520 470 L 568 470" fill="none" stroke="rgb(0,0,0)" stroke-dasharray="2" />
  <polygon fill="rgb(0,0,0)" points="513,470 520,466 520,474 513,470" stroke="rgb(0,0,0)" />
  <polygon fill="rgb(0,0,0)" points="575,470 568,466 568,474 575,470" stroke="rgb(0,0,0)" />
  <path d="M 672 200 L 672 232" fill="none" stroke="rgb(0,0,0)" />
  <polygon fill="white" points="672,239 668,232 676,232 672,239" stroke="rgb(0,0,0)" />
  <path d="M 672 300 L 672 332" fill="none" stroke="rgb(0,0,0)" />
  <polygon fill="white" points="672,339 668,332 676,332 672,339" stroke="rgb(0,0,0)" />
  <path d="M 672 400 L 672 432" fill="none" stroke="rgb(0,0,0)" />
  <polygon fill="white" points="672,439 668,432 676,432 672,439" stroke="rgb(0,0,0)" />
  <path d="M 160 300 L 160 332" fill="none" stroke="rgb(0,0,0)" />
  <polygon fill="white" points="160,339 156,332 164,332 160,339" stroke="rgb(0,0,0)" />
  <path d="M 264 270 L 312 270" fill="none" stroke="rgb(0,0,0)" stroke-dasharray="2" />
  <polygon fill="rgb(0,0,0)" points="257,270 264,266 264,274 257,270" stroke="rgb(0,0,0)" />
  <polygon fill="rgb(0,0,0)" points="319,270 312,266 312,274 319,270" stroke="rgb(0,0,0)" />
  <path d="M 264 370 L 312 370" fill="none" stroke="rgb(0,0,0)" stroke-dasharray="2" />
  <polygon fill="rgb(0,0,0)" points="257,370 264,366 264,374 257,370" stroke="rgb(0,0,0)" />
  <polygon fill="rgb(0,0,0)" points="319,370 312,366 312,374 319,370" stroke="rgb(0,0,0)" />
  <path d="M 264 470 L 288 470" fill="none" stroke="rgb(0,0,0)" stroke-dasharray="2" />
  <path d="M 288 470 L 288 570" fill="none" stroke="rgb(0,0,0)" stroke-dasharray="2" />
  <path d="M 288 570 L 312 570" fill="none" stroke="rgb(0,0,0)" stroke-dasharray="2" />
  <polygon fill="rgb(0,0,0)" points="257,470 264,466 264,474 257,470" stroke="rgb(0,0,0)" />
  <polygon fill="rgb(0,0,0)" points="319,570 312,566 312,574 319,570" stroke="rgb(0,0,0)" />
  <path d="M 160 300 L 160 332" fill="none" stroke="rgb(0,0,0)" />
  <polygon fill="white" points="160,339 156,332 164,332 160,339" stroke="rgb(0,0,0)" />
  <path d="M 264 270 L 312 270" fill="none" stroke="rgb(0,0,0)" stroke-dasharray="2" />
  <polygon fill="rgb(0,0,0)" points="257,270 264,266 264,274 257,270" stroke="rgb(0,0,0)" />
  <polygon fill="rgb(0,0,0)" points="319,270 312,266 312,274 319,270" stroke="rgb(0,0,0)" />
  <path d="M 264 370 L 312 370" fill="none" stroke="rgb(0,0,0)" stroke-dasharray="2" />
  <polygon fill="rgb(0,0,0)" points="257,370 264,366 264,374 257,370" stroke="rgb(0,0,0)" />
  <polygon fill="rgb(0,0,0)" points="319,370 312,366 312,374 319,370" stroke="rgb(0,0,0)" />
  <path d="M 264 470 L 288 470" fill="none" stroke="rgb(0,0,0)" stroke-dasharray="2" />
  <path d="M 288 470 L 288 570" fill="none" stroke="rgb(0,0,0)" stroke-dasharray="2" />
  <path d="M 288 570 L 312 570" fill="none" stroke="rgb(0,0,0)" stroke-dasharray="2" />
  <polygon fill="rgb(0,0,0)" points="257,470 264,466 264,474 257,470" stroke="rgb(0,0,0)" />
  <polygon fill="rgb(0,0,0)" points="319,570 312,566 312,574 319,570" stroke="rgb(0,0,0)" />
  <path d="M 416 300 L 416 332" fill="none" stroke="rgb(0,0,0)" stroke-dasharray="2" />
  <polygon fill="rgb(0,0,0)" points="416,339 412,332 420,332 416,339" stroke="rgb(0,0,0)" />
  <path d="M 416 400 L 416 432" fill="none" stroke="rgb(0,0,0)" stroke-dasharray="2" />
  <polygon fill="rgb(0,0,0)" points="416,439 412,432 420,432 416,439" stroke="rgb(0,0,0)" />
  <path d="M 416 500 L 416 532" fill="none" stroke="rgb(0,0,0)" stroke-dasharray="2" />
  <polygon fill="rgb(0,0,0)" points="416,539 412,532 420,532 416,539" stroke="rgb(0,0,0)" />
  <path d="M 520 470 L 568 470" fill="none" stroke="rgb(0,0,0)" stroke-dasharray="2" />
  <polygon fill="rgb(0,0,0)" points="513,470 520,466 520,474 513,470" stroke="rgb(0,0,0)" />
  <polygon fill="rgb(0,0,0)" points="575,470 568,466 568,474 575,470" stroke="rgb(0,0,0)" />
  <path d="M 416 500 L 416 532" fill="none" stroke="rgb(0,0,0)" stroke-dasharray="2" />
  <polygon fill="rgb(0,0,0)" points="416,539 412,532 420,532 416,539" stroke="rgb(0,0,0)" />
  <path d="M 520 470 L 568 470" fill="none" stroke="rgb(0,0,0)" stroke-dasharray="2" />
  <polygon fill="rgb(0,0,0)" points="513,470 520,466 520,474 513,470" stroke="rgb(0,0,0)" />
  <polygon fill="rgb(0,0,0)" points="575,470 568,466 568,474 575,470" stroke="rgb(0,0,0)" />
</svg>
